<svg width="50" height="50" viewBox="0 0 50 50" fill="none" xmlns="http://www.w3.org/2000/svg">
<g id="Group 5">
<path id="Vector 4" d="M29.8611 12.2699L14.5833 0L6.6813 17.1198C3.00928 25.0753 6.56838 34.4963 14.5833 38.0367L29.8611 12.2699Z" fill="white"/>
<path id="Vector 5" d="M45.8262 49.9999H26.9337C20.4961 49.9999 15.2773 44.7812 15.2773 38.3435H49.9996V45.8266C49.9996 48.1314 48.1311 49.9999 45.8262 49.9999Z" fill="white"/>
<path id="Subtract" fill-rule="evenodd" clip-rule="evenodd" d="M36.0278 34.9509C41.0137 34.9509 45.0556 31.3801 45.0556 26.9754C45.0556 22.5707 41.0137 19 36.0278 19C31.0419 19 27 22.5707 27 26.9754C27 31.3801 31.0419 34.9509 36.0278 34.9509ZM31.8359 26.0291C31.4058 26.2971 30.9372 26.5314 29.9999 27.0001C30.9303 27.4653 31.3955 27.6979 31.8227 27.9636C33.1091 28.7637 34.178 29.8065 34.952 31.0165C35.2091 31.4183 35.4251 31.8502 35.8571 32.7141L36 33L36.1427 32.7145C36.5778 31.8444 36.7953 31.4093 37.0546 31.0048C37.8249 29.803 38.8869 28.7669 40.1644 27.9708C40.5943 27.7029 41.0628 27.4686 41.9999 27.0001C41.0705 26.5354 40.6058 26.303 40.179 26.0377C38.8913 25.2369 37.8214 24.193 37.0471 22.9817C36.7905 22.5803 36.5748 22.1488 36.1435 21.2858L36.0004 20.9994L35.8572 21.2857C35.422 22.1561 35.2044 22.5913 34.945 22.9959C34.1747 24.1973 33.113 25.2332 31.8359 26.0291Z" fill="white"/>
</g>
</svg>
